<svg width="308" height="253" viewBox="0 0 308 253" fill="none" xmlns="http://www.w3.org/2000/svg">
<path d="M0.711654 148.436C7.54718 86.1272 25.695 62.5216 65.1234 29.7999C120.451 -16.1166 189.675 -1.42012 238.641 23.5558C287.607 48.5318 317.512 127.403 303.71 171.44C289.907 215.476 187.046 258.527 124.606 252.283C62.1657 246.039 -7.83276 226.321 0.711654 148.436Z" fill="url(#paint0_radial_436_158)"/>
<path d="M104 101.002C104 119.12 95.9568 122 88.8804 122C76.3358 122 71.5128 113.693 70.2261 106.54C68.9393 99.387 73.1203 82.0251 83.4137 80.2349C95.3135 78.1654 104 90.1572 104 101.002Z" fill="white"/>
<path d="M101.847 93.0001C101.847 99.1711 96.8444 104.174 90.6735 104.174C84.5025 104.174 79.5 99.1711 79.5 93.0001C79.5 86.8292 84.5025 81.8267 90.6735 81.8267C96.8444 81.8267 101.847 86.8292 101.847 93.0001Z" fill="black"/>
<path d="M237 105.967C237 123.431 221.5 122.567 216.01 121.536C203.859 119.256 205.031 108.94 205.031 100.266C205.031 91.5918 211.168 79.3589 221.501 80.0262C233.719 80.8151 237 95.5137 237 105.967Z" fill="white"/>
<circle cx="223.173" cy="91.1735" r="11.1735" fill="black"/>
<path d="M218 69L230.5 72.5" stroke="black" stroke-width="10" stroke-linecap="round"/>
<path d="M67 73.3013L82 70" stroke="black" stroke-width="10" stroke-linecap="round"/>
<path d="M128.663 163.759C132.163 156.259 148.663 153.5 164.163 149.259M128.663 163.759L126.163 155.259M128.663 163.759L130.163 168.759" stroke="black" stroke-width="10" stroke-linecap="round"/>
<defs>
<radialGradient id="paint0_radial_436_158" cx="0" cy="0" r="1" gradientUnits="userSpaceOnUse" gradientTransform="translate(221 31) rotate(75.8686) scale(219.131 367.769)">
<stop stop-color="#A2D0E4"/>
<stop offset="0.712776" stop-color="#7089E6"/>
<stop offset="1" stop-color="#9997E1"/>
</radialGradient>
</defs>
</svg>
